<svg width="450" height="89" viewBox="0 0 450 89" fill="none" xmlns="http://www.w3.org/2000/svg">
<path d="M80.822 57.8313V81.104H75.9015V57.8313H80.822ZM89.6203 71.0131V81.104H84.7794V63.6495H89.393V66.729H89.5976C89.9839 65.7138 90.6316 64.9108 91.5407 64.3199C92.4498 63.7214 93.5521 63.4222 94.8476 63.4222C96.0597 63.4222 97.1165 63.6873 98.018 64.2176C98.9195 64.7479 99.6203 65.5055 100.12 66.4904C100.62 67.4676 100.87 68.6343 100.87 69.9904V81.104H96.0294V70.854C96.0369 69.7858 95.7642 68.9525 95.2112 68.354C94.6582 67.7479 93.8968 67.4449 92.9271 67.4449C92.2756 67.4449 91.6998 67.5851 91.1998 67.8654C90.7074 68.1457 90.321 68.5548 90.0407 69.0926C89.768 69.6229 89.6279 70.2631 89.6203 71.0131ZM113.97 63.6495V67.2858H103.459V63.6495H113.97ZM105.845 59.4676H110.686V75.7404C110.686 76.1873 110.754 76.5358 110.89 76.7858C111.027 77.0282 111.216 77.1987 111.459 77.2972C111.709 77.3957 111.996 77.4449 112.322 77.4449C112.549 77.4449 112.777 77.426 113.004 77.3881C113.231 77.3426 113.406 77.3085 113.527 77.2858L114.288 80.8881C114.046 80.9638 113.705 81.051 113.265 81.1495C112.826 81.2555 112.292 81.3199 111.663 81.3426C110.496 81.3881 109.474 81.2328 108.595 80.8767C107.724 80.5207 107.046 79.9676 106.561 79.2176C106.076 78.4676 105.837 77.5207 105.845 76.3767V59.4676ZM124.89 81.4449C123.095 81.4449 121.549 81.0813 120.254 80.354C118.966 79.6192 117.974 78.5813 117.277 77.2404C116.58 75.8919 116.231 74.2972 116.231 72.4563C116.231 70.6608 116.58 69.0851 117.277 67.729C117.974 66.3729 118.955 65.3161 120.22 64.5585C121.493 63.801 122.985 63.4222 124.697 63.4222C125.849 63.4222 126.921 63.6078 127.913 63.979C128.913 64.3426 129.784 64.8919 130.527 65.6267C131.277 66.3616 131.86 67.2858 132.277 68.3995C132.693 69.5055 132.902 70.801 132.902 72.2858V73.6154H118.163V70.6154H128.345C128.345 69.9184 128.193 69.301 127.89 68.7631C127.587 68.2252 127.167 67.8048 126.629 67.5017C126.099 67.1911 125.481 67.0358 124.777 67.0358C124.042 67.0358 123.39 67.2063 122.822 67.5472C122.262 67.8805 121.822 68.3313 121.504 68.8995C121.186 69.4601 121.023 70.0851 121.015 70.7745V73.6267C121.015 74.4904 121.174 75.2366 121.493 75.8654C121.818 76.4942 122.277 76.979 122.868 77.3199C123.459 77.6608 124.159 77.8313 124.97 77.8313C125.508 77.8313 126 77.7555 126.447 77.604C126.894 77.4525 127.277 77.2252 127.595 76.9222C127.913 76.6192 128.156 76.2479 128.322 75.8085L132.799 76.104C132.572 77.1798 132.106 78.1192 131.402 78.9222C130.705 79.7176 129.803 80.3388 128.697 80.7858C127.599 81.2252 126.33 81.4449 124.89 81.4449ZM140.902 57.8313V81.104H136.061V57.8313H140.902ZM149.62 57.8313V81.104H144.78V57.8313H149.62ZM153.498 81.104V63.6495H158.339V81.104H153.498ZM155.93 61.3995C155.21 61.3995 154.593 61.1608 154.078 60.6835C153.57 60.1987 153.316 59.6192 153.316 58.9449C153.316 58.2782 153.57 57.7063 154.078 57.229C154.593 56.7442 155.21 56.5017 155.93 56.5017C156.65 56.5017 157.263 56.7442 157.771 57.229C158.286 57.7063 158.544 58.2782 158.544 58.9449C158.544 59.6192 158.286 60.1987 157.771 60.6835C157.263 61.1608 156.65 61.3995 155.93 61.3995ZM170.081 88.0131C168.513 88.0131 167.168 87.7972 166.047 87.3654C164.933 86.9411 164.047 86.3616 163.388 85.6267C162.728 84.8919 162.3 84.0661 162.103 83.1495L166.581 82.5472C166.717 82.8957 166.933 83.2214 167.228 83.5245C167.524 83.8275 167.914 84.0699 168.399 84.2517C168.891 84.4411 169.49 84.5358 170.194 84.5358C171.247 84.5358 172.115 84.2782 172.797 83.7631C173.486 83.2555 173.831 82.4032 173.831 81.2063V78.0131H173.626C173.414 78.4979 173.096 78.9563 172.672 79.3881C172.247 79.8199 171.702 80.1722 171.035 80.4449C170.369 80.7176 169.573 80.854 168.649 80.854C167.338 80.854 166.145 80.551 165.069 79.9449C164.001 79.3313 163.149 78.3957 162.513 77.1381C161.884 75.8729 161.569 74.2745 161.569 72.3426C161.569 70.3654 161.891 68.7138 162.535 67.3881C163.179 66.0623 164.035 65.0699 165.103 64.4108C166.179 63.7517 167.357 63.4222 168.638 63.4222C169.615 63.4222 170.433 63.5888 171.092 63.9222C171.751 64.2479 172.281 64.657 172.683 65.1495C173.092 65.6343 173.406 66.1116 173.626 66.5813H173.808V63.6495H178.615V81.2745C178.615 82.7593 178.251 84.0017 177.524 85.0017C176.797 86.0017 175.789 86.7517 174.501 87.2517C173.221 87.7593 171.747 88.0131 170.081 88.0131ZM170.183 77.2176C170.963 77.2176 171.622 77.0245 172.16 76.6381C172.706 76.2442 173.122 75.6835 173.41 74.9563C173.706 74.2214 173.853 73.3426 173.853 72.3199C173.853 71.2972 173.709 70.4108 173.422 69.6608C173.134 68.9032 172.717 68.3161 172.172 67.8995C171.626 67.4828 170.963 67.2745 170.183 67.2745C169.388 67.2745 168.717 67.4904 168.172 67.9222C167.626 68.3464 167.213 68.9373 166.933 69.6949C166.653 70.4525 166.513 71.3275 166.513 72.3199C166.513 73.3275 166.653 74.1987 166.933 74.9335C167.221 75.6608 167.634 76.2252 168.172 76.6267C168.717 77.0207 169.388 77.2176 170.183 77.2176ZM190.422 81.4449C188.626 81.4449 187.081 81.0813 185.785 80.354C184.497 79.6192 183.505 78.5813 182.808 77.2404C182.111 75.8919 181.763 74.2972 181.763 72.4563C181.763 70.6608 182.111 69.0851 182.808 67.729C183.505 66.3729 184.486 65.3161 185.751 64.5585C187.024 63.801 188.516 63.4222 190.228 63.4222C191.38 63.4222 192.452 63.6078 193.444 63.979C194.444 64.3426 195.316 64.8919 196.058 65.6267C196.808 66.3616 197.391 67.2858 197.808 68.3995C198.225 69.5055 198.433 70.801 198.433 72.2858V73.6154H183.694V70.6154H193.876C193.876 69.9184 193.725 69.301 193.422 68.7631C193.119 68.2252 192.698 67.8048 192.16 67.5017C191.63 67.1911 191.013 67.0358 190.308 67.0358C189.573 67.0358 188.922 67.2063 188.353 67.5472C187.793 67.8805 187.353 68.3313 187.035 68.8995C186.717 69.4601 186.554 70.0851 186.547 70.7745V73.6267C186.547 74.4904 186.706 75.2366 187.024 75.8654C187.35 76.4942 187.808 76.979 188.399 77.3199C188.99 77.6608 189.691 77.8313 190.501 77.8313C191.039 77.8313 191.531 77.7555 191.978 77.604C192.425 77.4525 192.808 77.2252 193.126 76.9222C193.444 76.6192 193.687 76.2479 193.853 75.8085L198.331 76.104C198.103 77.1798 197.638 78.1192 196.933 78.9222C196.236 79.7176 195.334 80.3388 194.228 80.7858C193.13 81.2252 191.861 81.4449 190.422 81.4449ZM206.433 71.0131V81.104H201.592V63.6495H206.206V66.729H206.41C206.797 65.7138 207.444 64.9108 208.353 64.3199C209.263 63.7214 210.365 63.4222 211.66 63.4222C212.872 63.4222 213.929 63.6873 214.831 64.2176C215.732 64.7479 216.433 65.5055 216.933 66.4904C217.433 67.4676 217.683 68.6343 217.683 69.9904V81.104H212.842V70.854C212.85 69.7858 212.577 68.9525 212.024 68.354C211.471 67.7479 210.709 67.4449 209.74 67.4449C209.088 67.4449 208.513 67.5851 208.013 67.8654C207.52 68.1457 207.134 68.5548 206.853 69.0926C206.581 69.6229 206.441 70.2631 206.433 71.0131ZM230.782 63.6495V67.2858H220.271V63.6495H230.782ZM222.657 59.4676H227.498V75.7404C227.498 76.1873 227.567 76.5358 227.703 76.7858C227.839 77.0282 228.029 77.1987 228.271 77.2972C228.521 77.3957 228.809 77.4449 229.135 77.4449C229.362 77.4449 229.589 77.426 229.816 77.3881C230.044 77.3426 230.218 77.3085 230.339 77.2858L231.101 80.8881C230.858 80.9638 230.517 81.051 230.078 81.1495C229.638 81.2555 229.104 81.3199 228.476 81.3426C227.309 81.3881 226.286 81.2328 225.407 80.8767C224.536 80.5207 223.858 79.9676 223.373 79.2176C222.888 78.4676 222.65 77.5207 222.657 76.3767V59.4676ZM254.058 64.5245C253.967 63.6078 253.577 62.8957 252.888 62.3881C252.198 61.8805 251.263 61.6267 250.081 61.6267C249.278 61.6267 248.6 61.7404 248.047 61.9676C247.494 62.1873 247.069 62.4942 246.774 62.8881C246.486 63.282 246.342 63.729 246.342 64.229C246.327 64.6457 246.414 65.0093 246.603 65.3199C246.8 65.6305 247.069 65.8995 247.41 66.1267C247.751 66.3464 248.145 66.5396 248.592 66.7063C249.039 66.8654 249.516 67.0017 250.024 67.1154L252.115 67.6154C253.13 67.8426 254.062 68.1457 254.91 68.5245C255.759 68.9032 256.494 69.3692 257.115 69.9222C257.736 70.4752 258.217 71.1267 258.558 71.8767C258.906 72.6267 259.084 73.4866 259.092 74.4563C259.084 75.8805 258.721 77.1154 258.001 78.1608C257.289 79.1987 256.259 80.0055 254.91 80.5813C253.569 81.1495 251.952 81.4335 250.058 81.4335C248.179 81.4335 246.543 81.1457 245.149 80.5699C243.763 79.9942 242.679 79.1419 241.899 78.0131C241.126 76.8767 240.721 75.4714 240.683 73.7972H245.444C245.497 74.5775 245.721 75.229 246.115 75.7517C246.516 76.2669 247.05 76.657 247.717 76.9222C248.391 77.1798 249.153 77.3085 250.001 77.3085C250.834 77.3085 251.558 77.1873 252.172 76.9449C252.793 76.7025 253.274 76.3654 253.615 75.9335C253.956 75.5017 254.126 75.0055 254.126 74.4449C254.126 73.9222 253.971 73.4828 253.66 73.1267C253.357 72.7707 252.91 72.4676 252.319 72.2176C251.736 71.9676 251.02 71.7404 250.172 71.5358L247.638 70.8995C245.675 70.4222 244.126 69.676 242.99 68.6608C241.853 67.6457 241.289 66.2782 241.297 64.5585C241.289 63.1495 241.664 61.9184 242.422 60.8654C243.187 59.8123 244.236 58.9904 245.569 58.3995C246.903 57.8085 248.418 57.5131 250.115 57.5131C251.842 57.5131 253.35 57.8085 254.638 58.3995C255.933 58.9904 256.941 59.8123 257.66 60.8654C258.38 61.9184 258.751 63.1381 258.774 64.5245H254.058ZM265.299 87.6495C264.686 87.6495 264.11 87.6002 263.572 87.5017C263.042 87.4108 262.602 87.2934 262.254 87.1495L263.345 83.5358C263.913 83.7101 264.424 83.8048 264.879 83.8199C265.341 83.8351 265.739 83.729 266.072 83.5017C266.413 83.2745 266.69 82.8881 266.902 82.3426L267.186 81.604L260.924 63.6495H266.015L269.629 76.4676H269.811L273.459 63.6495H278.584L271.799 82.9904C271.474 83.9298 271.031 84.7479 270.47 85.4449C269.917 86.1495 269.216 86.6911 268.368 87.0699C267.519 87.4563 266.496 87.6495 265.299 87.6495ZM295.584 68.6267L291.152 68.8995C291.076 68.5207 290.913 68.1798 290.663 67.8767C290.413 67.5661 290.084 67.3199 289.674 67.1381C289.273 66.9487 288.792 66.854 288.231 66.854C287.481 66.854 286.849 67.0131 286.334 67.3313C285.818 67.6419 285.561 68.0585 285.561 68.5813C285.561 68.9979 285.727 69.3502 286.061 69.6381C286.394 69.926 286.966 70.157 287.777 70.3313L290.936 70.9676C292.633 71.3161 293.898 71.8767 294.731 72.6495C295.565 73.4222 295.981 74.4373 295.981 75.6949C295.981 76.8388 295.644 77.8426 294.97 78.7063C294.303 79.5699 293.387 80.2442 292.22 80.729C291.061 81.2063 289.724 81.4449 288.209 81.4449C285.898 81.4449 284.057 80.9638 282.686 80.0017C281.322 79.032 280.523 77.7138 280.288 76.0472L285.049 75.7972C285.193 76.5017 285.542 77.0396 286.095 77.4108C286.648 77.7745 287.356 77.9563 288.22 77.9563C289.068 77.9563 289.75 77.7934 290.265 77.4676C290.788 77.1343 291.053 76.7063 291.061 76.1835C291.053 75.7442 290.868 75.3843 290.504 75.104C290.14 74.8161 289.58 74.5964 288.822 74.4449L285.799 73.8426C284.095 73.5017 282.826 72.9108 281.993 72.0699C281.167 71.229 280.754 70.157 280.754 68.854C280.754 67.7328 281.057 66.7669 281.663 65.9563C282.277 65.1457 283.137 64.5207 284.243 64.0813C285.356 63.6419 286.659 63.4222 288.152 63.4222C290.356 63.4222 292.091 63.8881 293.356 64.8199C294.629 65.7517 295.371 67.0207 295.584 68.6267ZM308.314 63.6495V67.2858H297.802V63.6495H308.314ZM300.189 59.4676H305.03V75.7404C305.03 76.1873 305.098 76.5358 305.234 76.7858C305.37 77.0282 305.56 77.1987 305.802 77.2972C306.052 77.3957 306.34 77.4449 306.666 77.4449C306.893 77.4449 307.12 77.426 307.348 77.3881C307.575 77.3426 307.749 77.3085 307.87 77.2858L308.632 80.8881C308.389 80.9638 308.049 81.051 307.609 81.1495C307.17 81.2555 306.636 81.3199 306.007 81.3426C304.84 81.3881 303.817 81.2328 302.939 80.8767C302.067 80.5207 301.389 79.9676 300.905 79.2176C300.42 78.4676 300.181 77.5207 300.189 76.3767V59.4676ZM319.234 81.4449C317.439 81.4449 315.893 81.0813 314.598 80.354C313.31 79.6192 312.317 78.5813 311.62 77.2404C310.924 75.8919 310.575 74.2972 310.575 72.4563C310.575 70.6608 310.924 69.0851 311.62 67.729C312.317 66.3729 313.299 65.3161 314.564 64.5585C315.836 63.801 317.329 63.4222 319.041 63.4222C320.192 63.4222 321.264 63.6078 322.257 63.979C323.257 64.3426 324.128 64.8919 324.87 65.6267C325.62 66.3616 326.204 67.2858 326.62 68.3995C327.037 69.5055 327.245 70.801 327.245 72.2858V73.6154H312.507V70.6154H322.689C322.689 69.9184 322.537 69.301 322.234 68.7631C321.931 68.2252 321.511 67.8048 320.973 67.5017C320.442 67.1911 319.825 67.0358 319.12 67.0358C318.386 67.0358 317.734 67.2063 317.166 67.5472C316.605 67.8805 316.166 68.3313 315.848 68.8995C315.53 69.4601 315.367 70.0851 315.359 70.7745V73.6267C315.359 74.4904 315.518 75.2366 315.836 75.8654C316.162 76.4942 316.62 76.979 317.211 77.3199C317.802 77.6608 318.503 77.8313 319.314 77.8313C319.852 77.8313 320.344 77.7555 320.791 77.604C321.238 77.4525 321.62 77.2252 321.939 76.9222C322.257 76.6192 322.499 76.2479 322.666 75.8085L327.143 76.104C326.916 77.1798 326.45 78.1192 325.745 78.9222C325.049 79.7176 324.147 80.3388 323.041 80.7858C321.942 81.2252 320.674 81.4449 319.234 81.4449ZM330.405 81.104V63.6495H335.018V66.729H335.223C335.586 65.7063 336.192 64.8995 337.041 64.3085C337.889 63.7176 338.905 63.4222 340.086 63.4222C341.283 63.4222 342.302 63.7214 343.143 64.3199C343.984 64.9108 344.545 65.7138 344.825 66.729H345.007C345.363 65.729 346.007 64.9298 346.939 64.3313C347.878 63.7252 348.988 63.4222 350.268 63.4222C351.897 63.4222 353.219 63.9411 354.234 64.979C355.257 66.0093 355.768 67.4714 355.768 69.3654V81.104H350.939V70.3199C350.939 69.3502 350.681 68.6229 350.166 68.1381C349.651 67.6532 349.007 67.4108 348.234 67.4108C347.355 67.4108 346.67 67.6911 346.177 68.2517C345.685 68.8048 345.439 69.5358 345.439 70.4449V81.104H340.745V70.2176C340.745 69.3616 340.499 68.6798 340.007 68.1722C339.522 67.6646 338.882 67.4108 338.086 67.4108C337.549 67.4108 337.064 67.5472 336.632 67.8199C336.208 68.0851 335.87 68.4601 335.62 68.9449C335.37 69.4222 335.245 69.9828 335.245 70.6267V81.104H330.405ZM374.115 68.6267L369.683 68.8995C369.607 68.5207 369.444 68.1798 369.194 67.8767C368.944 67.5661 368.615 67.3199 368.206 67.1381C367.804 66.9487 367.323 66.854 366.763 66.854C366.013 66.854 365.38 67.0131 364.865 67.3313C364.35 67.6419 364.092 68.0585 364.092 68.5813C364.092 68.9979 364.259 69.3502 364.592 69.6381C364.925 69.926 365.497 70.157 366.308 70.3313L369.467 70.9676C371.164 71.3161 372.429 71.8767 373.263 72.6495C374.096 73.4222 374.513 74.4373 374.513 75.6949C374.513 76.8388 374.175 77.8426 373.501 78.7063C372.834 79.5699 371.918 80.2442 370.751 80.729C369.592 81.2063 368.255 81.4449 366.74 81.4449C364.429 81.4449 362.588 80.9638 361.217 80.0017C359.853 79.032 359.054 77.7138 358.819 76.0472L363.581 75.7972C363.725 76.5017 364.073 77.0396 364.626 77.4108C365.179 77.7745 365.888 77.9563 366.751 77.9563C367.6 77.9563 368.281 77.7934 368.797 77.4676C369.319 77.1343 369.584 76.7063 369.592 76.1835C369.584 75.7442 369.399 75.3843 369.035 75.104C368.672 74.8161 368.111 74.5964 367.353 74.4449L364.331 73.8426C362.626 73.5017 361.357 72.9108 360.524 72.0699C359.698 71.229 359.285 70.157 359.285 68.854C359.285 67.7328 359.588 66.7669 360.194 65.9563C360.808 65.1457 361.668 64.5207 362.774 64.0813C363.888 63.6419 365.191 63.4222 366.683 63.4222C368.888 63.4222 370.622 63.8881 371.888 64.8199C373.16 65.7517 373.903 67.0207 374.115 68.6267Z" fill="#F5F3F5"/>
<path d="M7.77144 13.6729L40.5914 48.1233C41.7475 49.3298 42.9678 49.933 44.3165 49.933C46.6929 49.933 48.3628 48.0563 48.3628 44.8391V44.0288L33.3716 28.3847V28.3825L7.64298 1.74262C6.42268 0.469174 5.39505 0 4.17474 0C1.60567 0 0 1.9437 0 5.09383V49.3298H7.77144V13.6729Z" fill="#119DA4"/>
<path d="M40.5914 17.9122H48.3628V0.201073H40.5914V17.9122Z" fill="#0C7489"/>
<path d="M56.2656 49.3298H98.013V40.8177H64.3582V9.1153H97.9488V0.60321H56.2656V49.3298Z" fill="#119DA4"/>
<path d="M70.3314 28.1501H96.2148V20.9786H70.3314V28.1501Z" fill="#0C7489"/>
<path d="M151.95 49.3298H163.331L158.184 44.1245L138.077 23.9946L138.178 23.8933L115.148 0.60321H104.166L127.416 23.9946L102.367 49.3298H112.965L132.361 29.4236L151.95 49.3298Z" fill="#119DA4"/>
<path d="M161.327 0.60321L147.246 14.7704H136.952L150.73 0.60321H161.327Z" fill="#0C7489"/>
<path fill-rule="evenodd" clip-rule="evenodd" d="M184.341 49.3298H195.709C209.004 49.3298 218.574 38.6059 218.574 24.4638C218.574 10.3217 209.197 0.60321 195.709 0.60321H184.341C171.303 0.60321 161.669 10.1206 161.669 24.4638C161.669 38.6059 171.303 49.3298 184.341 49.3298ZM195.709 40.8177H184.341C175.927 40.8177 169.826 34.0483 169.826 24.8659C169.826 15.6166 175.992 9.1153 184.341 9.1153H195.709C204.316 9.1153 210.417 15.6836 210.417 24.8659C210.417 34.0483 204.316 40.8177 195.709 40.8177Z" fill="#119DA4"/>
<path d="M232.754 13.6729L265.574 48.1233C266.73 49.3298 267.95 49.933 269.299 49.933C271.675 49.933 273.345 48.0563 273.345 44.8391V43.8968L265.574 35.8542V35.8579L253.687 23.5534L253.689 23.5522L232.625 1.74262C231.405 0.469174 230.377 0 229.157 0C226.588 0 224.982 1.9437 224.982 5.09383V49.3298H232.754V13.6729Z" fill="#119DA4"/>
<path d="M273.345 17.9122V0.201073H265.574V17.9122H273.345Z" fill="#0C7489"/>
<path fill-rule="evenodd" clip-rule="evenodd" d="M302.571 49.3298H313.939C327.234 49.3298 336.804 38.6059 336.804 24.4638C336.804 10.3217 327.427 0.60321 313.939 0.60321H302.571C289.533 0.60321 279.899 10.1206 279.899 24.4638C279.899 38.6059 289.533 49.3298 302.571 49.3298ZM313.939 40.8177H302.571C294.157 40.8177 288.056 34.0483 288.056 24.8659C288.056 15.6166 294.222 9.1153 302.571 9.1153H313.939C322.546 9.1153 328.647 15.6836 328.647 24.8659C328.647 34.0483 322.546 40.8177 313.939 40.8177Z" fill="#119DA4"/>
<path d="M385.152 21.054V27.815C385.152 37.6005 380.978 41.622 368.132 41.622C355.287 41.622 351.112 37.6005 351.112 27.815V0.60321H342.698V27.815C342.698 42.8954 349.892 50 367.875 50C385.987 50 393.116 42.8954 393.116 27.815V21.054H385.152Z" fill="#119DA4"/>
<path d="M393.116 14.7249L385.152 0.70012V0.60321H393.116V14.7249Z" fill="#0C7489"/>
<path d="M430.273 49.3298H435.485C445.247 49.3298 450 43.2306 450 35.0536C450 25.6032 444.926 20.9786 435.485 20.9786H414.097C410.501 20.9786 408.253 18.7668 408.253 15.0804C408.253 11.3941 410.437 9.1153 414.162 9.1153H447.688V0.60321H414.162C404.849 0.60321 399.775 6.43431 399.775 14.2761C399.775 22.319 405.234 28.1501 414.033 28.1501H435.485C439.852 28.1501 442.293 30.2949 442.293 34.4504C442.293 38.2708 439.852 40.8177 435.485 40.8177H430.273V49.3298Z" fill="#119DA4"/>
<path d="M418.231 49.3298V40.8177H400.481V49.3298H418.231Z" fill="#0C7489"/>
<path d="M157.309 49.3298H163.331L115.177 0.632545H111.146L157.309 49.3298Z" fill="#119DA4"/>
</svg>
